<?xml version="1.0" encoding="utf-8"?>
<!-- Generator: Adobe Illustrator 24.0.1, SVG Export Plug-In . SVG Version: 6.00 Build 0)  -->
<svg version="1.1" id="Capa_1" xmlns="http://www.w3.org/2000/svg" xmlns:xlink="http://www.w3.org/1999/xlink" x="0px" y="0px"
	 viewBox="0 0 357 355" style="enable-background:new 0 0 357 355;" xml:space="preserve">
<style type="text/css">
	.st0{fill:#B3DDE7;}
	.st1{fill:#A5B8C7;}
	.st2{fill:#A3BBCA;}
	.st3{fill:#88CCDC;}
	.st4{fill:#99D2E0;}
	.st5{fill:#427493;}
	.st6{fill:#27688A;}
	.st7{fill:#B7DFE9;}
	.st8{fill:#BCCCD8;}
	.st9{fill:#0099B9;}
	.st10{fill:#06597E;}
	.st11{fill:#0A5377;}
	.st12{fill:#003B63;}
	.st13{fill:#024C71;}
	.st14{fill:#07577C;}
	.st15{fill:#1A6588;}
	.st16{fill:#0199B9;}
	.st17{fill:#003660;}
	.st18{fill:#166588;}
	.st19{fill:#01426A;}
	.st20{fill:#044D73;}
	.st21{fill:#156487;}
	.st22{fill:#003B64;}
	.st23{fill:#0C4E77;}
	.st24{fill:#0E5578;}
	.st25{fill:#02567B;}
	.st26{fill:#034D73;}
	.st27{fill:#075076;}
	.st28{fill:#2D6A8B;}
	.st29{fill:#FEFEFE;}
</style>
<g>
	<path class="st0" d="M276.02,184.55c1.18,6.93-3.43,11.53-8.48,14.83c-6.96,4.54-14.84,7.64-22.09,11.76
		c-3.46,1.96-7.26,3.05-10.68,5.02c-0.72,0.41-1.52,0.91-1.29,1.88c0.25,1.04,1.25,0.88,2.05,0.96c7.48,0.69,14.34-1,20.87-4.77
		c5.57-3.21,10.9-6.56,15.88-10.76c8.61-7.26,15.49-15.9,21.86-24.98c7.53-10.73,15.87-20.83,23.65-31.35
		c1.91-2.59,4.26-2.43,6.65-1.98c2.79,0.52,3.35,3.01,3.41,5.41c0.09,3.2-1,6.22-2.03,9.19c-5.56,16.02-13.49,30.94-23.31,44.62
		c-12.74,17.74-27.87,33.1-47.14,44.2c-10.55,6.07-21.73,9.88-33.21,13.4c-9.51,2.91-19.47,3.5-28.96,6.18
		c-3.63,1.03-7.38,2.56-10.31,5.36c-1.29,1.24-2.74,2.75-4.77,1.76c-1.89-0.92-2.07-2.78-2.09-4.72
		c-0.14-11.07,2.62-21.55,6.1-31.94c4.42-13.2,12.29-23.74,24.04-31.18c7.34-4.66,15.26-8.26,23.34-11.48
		c11.89-4.75,23.82-9.43,35.66-14.31c1.94-0.8,3.55-2.41,5.26-3.72c1.17-0.9,2.18-2.3,3.89-1.55c1.89,0.84,1.67,2.68,1.71,4.33
		C276.04,181.87,276.02,183.04,276.02,184.55z"/>
	<path class="st1" d="M174.84,233.79c-0.15,1.77-1.22,2.86-2.87,2.78c-1.94-0.09-1.86-2.03-2.37-3.37
		c-5.16-13.6-14.27-23.18-27.52-29.59c-12.32-5.96-25.04-10.8-37.7-15.83c-3.17-1.26-5.84-3.21-8.28-5.36
		c-3.79-3.33-7.55-3.39-11.2-0.44c-2.34,1.89-4.67,2.67-7.32,1.58c-2.95-1.22-2.41-4.08-2.35-6.53c0.23-8.97-0.73-17.97,0.63-26.91
		c1.09-7.14,3.26-13.91,5.62-20.76c5.66-16.49,15.84-29.7,28.23-41.32c9.27-8.69,19.58-16.06,31.53-20.95
		c6.64-2.71,12.98-5.73,20.36-6.52c3-0.32,5.85-3.27,9.52-2.37c0.89,2.75-1.02,3.53-3.01,4.02c-2.73,0.67-5.48,1.33-8.33,1.2
		c-2.27-0.1-4.19,0.8-5.97,2.1c-8.16,3.29-16.4,6.43-23.88,11.17c-9.28,5.05-16.93,12.07-24.12,19.7c-2.39,2.54-4.62,5.21-6.85,7.88
		c-0.45,0.51-0.94,0.99-1.43,1.46c-2.66,2.49-4.03,5.84-5.89,8.86c-1.02,1.94-2.03,3.89-3.14,5.78
		c-9.71,18.45-11.48,38.2-9.67,58.52c2.22,2.73,3.71-0.2,5.5-0.72c3.58-2.4,7.2-2.36,10.87-0.22c2.46,1.13,4.17,3.31,6.5,4.62
		c6.85,3.76,14.42,5.84,21.45,9.18c6.89,3.27,14.19,5.64,20.94,9.24c11.68,6.37,21.25,14.84,26.66,27.32
		C171.7,230.5,172.91,232.39,174.84,233.79z"/>
	<path class="st2" d="M221.98,190.92c-1.79,2.18-4.71,1.86-6.92,3.12c-1.98,0.91-3.42,3.46-6.18,2.05
		c-0.12-2.55,1.98-3.35,3.65-4.11c11.65-5.3,23.55-10.03,35.37-14.94c6.9-2.54,13.21-6.15,19.37-10.17
		c6.97-4.54,9.79-4.01,15.7,1.89c3.19,3.19,3.13,3.17,4.43-0.95c3.16-9.95,2.61-19.7,0.27-29.88c-2.28-9.92-6.42-18.75-11.45-27.36
		c-6.37-10.98-15.79-19.11-25.38-27.08c-7.97-6.63-16.86-11.91-26.54-15.35c-6.27-2.23-12.59-4.88-19.57-5.04
		c-2.83-0.07-7.17,0.34-6.89-4.86c2.66-0.35,5.28-0.76,7.2,1.93c0.38,0.53,1.5,0.75,2.27,0.73c9.49-0.21,17.92,3.86,26.03,7.71
		c9.14,4.33,17.67,10.15,25.05,17.33c8.45,8.22,17.35,16.17,23.14,26.56c3.27,5.86,6.03,12.06,7.92,18.71
		c2.58,9.07,3.87,18.08,3.52,27.47c-0.21,5.61-3.09,10.41-3.95,15.83c-0.49,3.08-3.09,2.91-5.24,0.66
		c-8.47-8.89-8.31-8.57-19.39-2.47c-8.34,4.6-16.74,9.24-26.16,11.54c-2.46,0.6-3.98,3.7-7.08,2.93
		C227.91,187.94,225.46,190.69,221.98,190.92z"/>
	<path class="st3" d="M168.01,255.96c0,2.67,0.01,5.33,0.01,8c-1.23,3.31-2.49,4.11-6.05,1.78c-4.28-2.8-9.41-4.71-14.59-5.08
		c-4.64-0.34-8.78-2.49-13.37-2.69l0,0c-3.39-0.83-7.17-0.33-10.02-2.98c-6.02-1.47-11.9-3.26-17.01-6.94
		c-1.42-1.32-4.69-1.06-3.74-4.39c1.83-0.73,3.21,0.45,4.64,1.2c5.32,2.78,11.03,4.62,16.55,6.92c8.69,3.62,18.17,3.81,27.09,6.51
		c3.19,0.97,6.29,2.05,9.36,3.29c2.82,1.14,4.12,0.35,3.84-2.75c-1.57-17.65-7.47-33.01-23.01-43.21
		c-5.04-3.31-10.61-5.51-16.22-7.62c-10.43-3.93-20.91-7.74-30.71-13.13c-1.07-0.59-2.34-1.99-3.53-0.7c-1,1.09-0.06,2.54,0.42,3.74
		c1.1,2.74,3.21,4.56,5.57,6.22c6.45,4.55,13.91,7.11,20.8,10.76c1.77,0.94,4.25,1.42,3.92,4.33c-1.02,0.44-1.99,0.42-2.9-0.27
		c-7.84-3.8-16.06-6.91-23.35-11.76c-4.91-3.26-9.14-7.19-8.75-13.92c0.24-4.12,3.04-5.89,6.26-3.49
		c8.88,6.6,19.44,9.32,29.47,13.26c14.4,5.65,28.48,11.7,36.67,26.04c1.06,1.85,1.8,3.89,2.69,5.84c1.8,2.38,2.34,5.23,2.93,8.05
		l0,0.01C167.2,247.03,167.2,251.59,168.01,255.96z"/>
	<path class="st4" d="M68.93,214.05c-7.68-10.16-13.4-21.51-19.34-32.69c-1.9-3.57-2.46-7.88-3.36-11.92
		c-0.53-2.36-0.19-4.78,2.36-5.99c2.49-1.18,4.59-0.2,6.15,1.8c6.11,7.82,12.39,15.52,18.16,23.59
		c8.83,12.36,18.65,23.58,32.09,31.15c-0.74,0.79-1.68,1.07-2.73,1.06c-6.57-2-11.58-6.5-16.12-11.23
		c-8.16-8.48-15.48-17.72-21.95-27.6c-2.9-4.43-6.85-8.09-9.93-12.43c-0.65-0.91-1.58-1.98-2.89-1.3c-1.26,0.65-0.93,2-0.78,3.14
		c1.01,7.78,5.02,14.38,8.7,21.02c3.78,6.81,7.78,13.52,12.55,19.72c0.98,1.28,2.27,2.54,1.52,4.45
		C70.76,217.7,70.35,215.06,68.93,214.05z"/>
	<path class="st5" d="M197.85,58.25c0.71,3.54,3.87,3.47,6.28,3.71c19.17,1.9,35.25,10.55,49.83,22.51
		c8.34,6.84,16.1,14.26,22.1,23.32c0.44,0.66,0.64,1.48,0.96,2.22c-2.58,0.62-3.46-1.51-4.63-2.99
		c-11.14-14.14-24.38-25.86-40.53-33.9c-9.62-4.79-19.76-8.47-30.71-8.72c-3.26-0.08-5.9-2.33-9.17-1.89
		c-12.47-1.55-24.39,2.71-36.64,3.48c-0.92-0.03-1.77-0.25-2.41-0.98c1.9-3.03,5.06-2.37,7.92-2.95c3.56-0.73,8.2,0.95,10.25-3.87
		C180.03,58.21,188.94,58.23,197.85,58.25z"/>
	<path class="st6" d="M248.12,178.07c-11.6,4.91-23.21,9.79-34.77,14.79c-1.62,0.7-2.97,2.04-4.45,3.08
		c-6.01,4.3-12.75,7.58-17.91,13.04c-5.95,6.13-10.59,13.14-14.01,20.97c-0.58,1.34-1.42,2.57-2.14,3.84
		c-2.81,0.58-3.68-1.24-4.53-3.4c-5.09-12.88-14.58-21.67-26.47-28.19c0.13-0.2,0.26-0.39,0.39-0.59c2.56-1.37,4.4,0.19,6.32,1.53
		c8.82,6.17,16.51,13.34,20.89,23.47c0.38,0.89,0.69,1.89,2.24,2.75c4.95-12.85,14.11-22.46,24.21-31.33
		c13.89-7.89,28.66-13.89,43.28-20.18C243.53,176.83,245.87,176.03,248.12,178.07z"/>
	<path class="st7" d="M68.93,214.05c1.39,0.97,2.77,1.94,4.16,2.91c1.68-0.37,2.26,1.08,3.15,1.95c7.8,7.58,14.75,16.09,24.39,21.61
		c1.17,0.67,2.68,1.5,2.45,3.37c0.47,2.17,2.9,2.49,3.91,4.15c-6.33-1.84-11.13-6.23-15.98-10.25
		C82.67,230.87,74.98,223.19,68.93,214.05z"/>
	<path class="st8" d="M190.99,208.98c4.58-6.26,10.64-10.47,17.91-13.04c2.5,0.83,3.86-2.07,6.16-1.9c-2.02,3.98-6.71,3.52-9.9,5.81
		c-4.33,3.12-9.16,5.57-13.01,9.42C191.77,209.65,191.26,209.54,190.99,208.98z"/>
	<path class="st7" d="M134.02,257.97c9.68,0.74,19.14,2.76,27.87,6.87c3,1.41,4.42,2.01,6.14-0.88c0.22,2.65-1.44,5.09-3.55,3.69
		C155.16,261.49,143.92,261.91,134.02,257.97z"/>
	<path class="st3" d="M101.91,220.04c1.03-0.02,2.05-0.04,3.08-0.05c3.12,1.76,6.22,3.58,10.04,2.94c2.57,1.48,5.56-0.33,8.14,1.05
		c0.02,1.24-0.84,1.86-1.82,1.96c-6.69,0.69-13.11,0.03-18.73-4.14C102.08,221.39,101.89,220.73,101.91,220.04z"/>
	<path class="st4" d="M122.97,223.96c-2.64-0.43-5.52,1.02-7.94-1.03c0.82-0.01,1.64,0.05,2.45-0.05c1.38-0.17,3.31,0.86,4.01-0.76
		c0.8-1.85-1.93-1.82-2.41-3.17c0.93,0.02,1.85,0.03,2.78,0.05C125.46,219.93,125.95,221.56,122.97,223.96z"/>
	<path class="st7" d="M168.01,255.96c-1.01-4.32-2.02-8.65-3.02-12.97C168.37,246.75,168.15,251.36,168.01,255.96z"/>
	<path class="st8" d="M221.98,190.92c3.18-0.95,5.45-4.14,9.18-3.76C228.32,188.96,225.82,191.57,221.98,190.92z"/>
	<path class="st7" d="M124,254.99c3.34,0.99,6.68,1.99,10.02,2.98C130.4,257.92,126.52,258.74,124,254.99z"/>
	<path class="st7" d="M164.99,242.97c-0.98-2.68-1.95-5.37-2.93-8.05C165.06,236.87,165.1,239.9,164.99,242.97z"/>
	<path class="st9" d="M237.92,221.18c13.04,0.19,22.91-6.17,32.4-13.31c14.74-11.08,24.24-26.64,34.9-41.2
		c4.41-6.02,9.15-11.79,13.69-17.72c1.22-1.59,2.63-2.71,4.65-2c2.03,0.72,1.52,2.66,1.68,4.28c0.51,5.28-2.39,9.7-4.14,14.21
		c-12.11,31.21-31.86,56.77-58.88,76.49c-9.39,6.85-20.12,11.23-31.17,15.11c-12.62,4.43-25.95,5.39-38.64,9.25
		c-3.69,1.12-7.18,2.62-10.23,5c-0.9,0.7-1.67,1.88-2.97,1.41c-1.6-0.58-1.37-2.15-1.3-3.43c0.41-8.16,2.29-16.14,4.26-23.97
		c2.31-9.15,6.08-17.81,12.53-25.16c6.28-7.15,13.83-12.37,22.32-16.3c13.94-6.47,28.44-11.6,42.64-17.44
		c3.58-1.47,7.41-2.92,10.3-5.87c0.89-0.91,2.23-1.7,3.59-0.84c1.08,0.69,1.04,2.01,1.09,3.17c0.36,7.91-4.49,12.78-10.54,16.22
		c-8.76,4.97-17.96,9.19-26.97,13.73c-0.15,0.07-0.34,0.07-0.47,0.16c-2.49,1.63-7.05,2.13-6.16,5.96
		C231.38,222.64,235.64,220.61,237.92,221.18z"/>
	<path class="st10" d="M152.95,65.02c0.68,0.03,1.36,0.06,2.04,0.09c-3.19,3.43-6.59,6.64-10.31,9.51c-4.54,3.5-4.6,3.67,0.26,6.14
		c3.58,1.82,3.08,5.07,3.06,8.11c2.48,0.24,3.57-1.57,5.18-2.28c1.61-0.72,3.15-1.5,4.02,0.91c-1.49,2.01-2.39,4.22-2.3,6.76
		c-2.59,1.2-3.48,3.8-4.88,5.98c-0.74,0.09-1.28-0.26-1.65-0.85c-0.82-1.35-1.68-2.64-3.51-1.47c-1.5,0.97-2.67,2.43-1.89,4.17
		c2.85,6.3,0.02,10.01-5.34,12.88c-3.13,1.68-4.43,5.93-8.59,6.26c-1.34-1.83-0.03-3.11,1.02-4.31c1.96-2.22,4.09-4.26,6.48-6.04
		c1.24-0.92,3.45-1.44,3.01-3.42c-0.39-1.73-2.78-0.36-3.83-1.53c-0.39-3.22-0.42-6.41-2.72-9.25c-1.86-2.29-0.92-4.54,1.7-6.19
		c3.01-1.9,3.19-8.33,0.49-10.58c-0.83-0.69-1.52-0.16-2.22,0.22c-1.91,1.03-3.61,2.29-5.02,3.98c-1.15,1.38-2.38,2.86-4.56,2.35
		c-1.6-1.94,0.48-2.85,1.17-4.13c1.22-2.26,3.98-3.48,4.34-6.34C136.33,71.04,144.38,67.45,152.95,65.02z"/>
	<path class="st11" d="M128.91,75.98c1.38,1.04,1.18,1.9,0.02,3.13c-2.09,2.2-3.93,4.63-5.88,6.96c0.51,1.89-0.97,2.7-2.11,3.49
		c-4.79,3.31-8.63,7.57-12.32,11.99c-1.83,2.18-4.05,3.84-6.8,4.72c-1.93,0.21-4.62,1.61-3.85-2.44
		C106.59,92.67,116.48,82.92,128.91,75.98z"/>
	<path class="st12" d="M84.19,179.21c-1.71,1.72-3.21,4.21-6.11,1.73c-1.08-5.07-0.25-10.21-0.48-15.3
		c0.54-1.78,0.33-3.64,0.56-5.45c0.35-2.8,1.77-3.4,4.08-1.72c1.12,6.08,5.49,11.32,4.69,17.91
		C86.56,177.85,84.9,178.07,84.19,179.21z"/>
	<path class="st6" d="M143.84,202.2c-13-5.49-25.53-12.12-39.14-16.12c-1.71-0.5-2.82-1.63-3.89-2.9c0.93-1.38,2.41-0.31,3.63-0.62
		c-0.51-1.82-2.06-2.31-3.2-3.19c-1.8-1.37-2.94-3.17-1.38-5.08c1.69-2.08,3.67-0.75,5.19,0.63c2.7,2.46,5.38,4.95,7.43,8.03
		c1.09,1.64,2.06,3.46,4.19,4.06c7.32,4.13,15.39,6.58,22.89,10.3c2.03,1.01,4.5,1.47,4.64,4.42
		C144.09,201.89,143.97,202.05,143.84,202.2z"/>
	<path class="st13" d="M116.04,187.94c-2.07,0.09-2.74-1.52-3.6-2.94c-2.25-3.74-5.51-6.59-8.55-9.63
		c-0.93-0.93-2.19-2.09-3.34-0.62c-1.16,1.47-0.3,2.73,1.23,3.61c1.14,0.65,2.3,1.34,3.27,2.21c1.06,0.95,2.69,2.07,1.51,3.68
		c-1.07,1.46-2.3,0.14-3.44-0.49c-0.67-0.38-1.54-0.4-2.31-0.59c-2.85-0.16-3.51-3.27-5.74-4.26c-0.34-0.45-0.36-0.91-0.07-1.39
		c0.41-0.72,0.95-1.36,1.3-2.12c3-6.53,4.41-6.85,9.44-1.92c2.85,2.79,5.86,5.44,8.31,8.6C115.35,183.75,116.8,185.51,116.04,187.94
		z"/>
	<path class="st6" d="M78.16,165.01c-0.03,5.31-0.06,10.62-0.09,15.93c-1.62-1.26-0.9-3.07-0.95-4.62
		c-0.46-13.41-0.77-26.88,3.32-39.83c1.91-6.05,3.99-12.19,7.52-17.62c1.73,1.8,0.87,3.75,0.04,5.45c-1.6,3.25-2.52,6.7-3.63,10.11
		c-0.15,0.52-0.36,1.03-0.58,1.52c-1.5,5.25-2.95,10.49-3.45,15.99C79.92,156.33,78.11,160.52,78.16,165.01z"/>
	<path class="st11" d="M83.07,134.02c0.69-5.35,4.76-9.62,4.89-15.15c0.91-1.68,1.81-3.36,2.72-5.04c0.88-0.19,1.34-1.45,2.48-1.01
		c2.86,2.65,1.05,5.26-0.04,7.89c-0.17,0.45-0.37,0.89-0.58,1.33c-1.32,3.03-2.88,5.95-4.31,8.94
		C87.31,132.9,86.22,135.47,83.07,134.02z"/>
	<path class="st14" d="M92.06,121.04c0.42-2.67,2.71-5.1,0.98-8.03c0.25-3.21,2.41-5.48,3.95-8.06c0.32-0.37,0.64-0.74,0.96-1.12
		c0.44,3.53,2.71,0.89,4.1,1.22c-1.86,5.34-5.41,9.85-7.43,15.13C94.31,121,93.16,121.46,92.06,121.04z"/>
	<path class="st6" d="M95.04,178.01c0.02,0.3,0.03,0.6,0.04,0.9c-3.69-1.99-7.31-1.39-10.89,0.3c0.11-1.17,0.88-1.78,1.86-2.23
		c2.23-4.15,5.01-2.9,7.88-0.81C94.51,176.65,94.93,177.24,95.04,178.01z"/>
	<path class="st6" d="M96.99,104.94c-0.75,2.96-2.37,5.5-3.95,8.06c-0.79,0.28-1.57,0.55-2.36,0.83
		C92.88,110.94,93.82,107.15,96.99,104.94z"/>
	<path class="st15" d="M248.12,178.07c-5.35-1.35-9.65,2.15-13.77,4.09c-10.6,5-22.1,8.24-31.72,15.31
		c-1.25,0.92-3.09,1.04-4.66,1.52c-2.44-4.54-1.46-8.61,1.73-12.34c3.13-3.66,6.55-7.07,8.93-11.33c1.08-1.93,1.31-3.57-0.03-5.52
		c-2.9-4.22-2.39-8.37,0.52-12.47c3.88-5.45,3.42-8.65-1.83-13.04c-1.79-1.49-4.43-2.78-3.71-5.38c0.91-3.28,2.65-6.39,4.8-9.09
		c0.88-1.11,2.5-0.4,3.67,0.35c1.27,0.81,2.25,1.97,3.44,2.87c0.94,0.71,2.01,1.5,3.12,0.54c1.09-0.94,0.55-2.13-0.02-3.18
		c-0.4-0.74-0.92-1.4-1.55-1.94c-3.78-3.28-5.06-6.5-1.38-11.06c2.48-3.06,0.26-7.52,1.59-11.16c1.59-2.93,4.29-3.98,7.39-4.43
		c2.98-0.43,5.86-1.15,8.03-3.46c0.2-0.42,0.4-0.83,0.59-1.25c1.57-5.68-0.05-10.41-4.09-14.56c-4.3-4.41-8.43-9-14.56-10.97
		c-5.21-2.43-9.59-6.8-16.26-5.64c-2.72,0.47-5.44-1.19-5.37-4.88c6.07,2.38,12.83,1.32,18.8,3.24c9.5,3.04,19.07,5.95,27.74,11.51
		c10.71,6.86,20,15.15,28.88,24.09c3.14,3.17,4.64,7.69,8.61,10.11c10.17,15.03,15.11,31.54,13.85,49.74
		c-0.3,4.3-2.7,8.13-2.96,12.51c-0.13,2.17-1.85,2.1-3.21,0.77c-0.81-0.79-1.27-1.93-2-2.83c-4.63-5.78-8.16-6.34-14.45-2.4
		C261.85,171.82,255.58,176.12,248.12,178.07z"/>
	<path class="st16" d="M122.97,223.96c2.07-2.2,1.04-3.71-1.12-4.96c-5.61-4.48-12.57-6.38-18.73-9.81
		c-5.61-3.13-11.71-5.75-13.49-12.89c-0.4-1.6-1.1-3.4,0.47-4.64c1.63-1.29,2.67,0.52,3.87,1.22c10.36,6.01,21.58,10.01,32.76,14.08
		c13.23,4.81,24.92,11.67,31.69,24.63c4.86,9.31,7.83,19.23,7.79,29.88c-0.01,2.5-0.19,3.53-3.39,2.24
		c-9.96-4.01-20.46-5.94-30.99-8.1c-9.17-1.89-18.22-5.82-26.52-10.74c-0.69-0.41-1.49-0.65-2.23-0.98
		c-11.51-7.29-21.16-16.66-29.99-26.93c-4.62-7.77-10.41-14.82-14.48-22.93c-3.61-7.21-8.13-14.04-9.35-22.26
		c-0.29-1.94-1.08-4.29,1.2-5.36c2.52-1.18,3.79,1.08,5.18,2.73c10.32,12.28,18.41,26.27,29.58,37.93
		c4.99,5.21,10.52,9.43,16.69,12.96C108.41,224.19,115.28,226.26,122.97,223.96z"/>
	<path class="st17" d="M218,106.05c-0.48,5.25,1.67,11.06-3.5,15.31c-0.99,0.81-0.37,2.2,0.48,3.14c0.67,0.74,1.4,1.42,2.09,2.14
		c2.24,2.33,6.13,4.85,3.04,8.19c-3.23,3.49-5.33-0.96-7.56-2.78c-2.13-1.74-2.65-3.12-4.97,0.91c-3.39,5.91-2.04,8,2.49,12.33
		c5.81,5.55,5.08,6.5,0.08,12.89c-3.13,4-3.42,7.85,0.12,11.5c1.87,1.93,1.29,3.39,0.21,5.27c-2.15,3.77-4.55,7.52-7.78,10.23
		c-4.58,3.86-5.17,8.53-4.72,13.82c-3.68,5.36-9.57,8.6-13.35,13.84c-3.55,4.93-6.96,9.95-9.05,15.74c-0.43,1.19-0.79,2.79-2.36,2.9
		c-1.48,0.1-1.62-1.47-2.01-2.48c-4.45-11.44-13.07-19.2-22.77-26.04c-1.34-0.95-2.8-0.89-4.23-1.21c-3-3.69-7.75-4.24-11.65-6.23
		c-5.37-2.74-11.37-4.24-16.51-7.57c-2.68-6.76-8.62-10.77-13.41-15.73c-2.08-2.15-4.05-1.39-4.48,1.59
		c-0.31,2.11-0.4,4.02-3.11,4.21c-0.36-0.32-0.71-0.63-1.07-0.95c-0.62-0.54-1.51-1.03-1.58-1.84c-0.41-4.3-2.21-7.8-5.45-10.66
		c-0.88-0.78-0.87-2.09-0.64-3.28c0.49-2.13,2.1-3.75,2.67-5.87c0.51-1.91,1.79-3.19,3.91-3.27c2.07-0.08,3.35,1.14,4.38,2.79
		c3.71,5.93,3.61,5.78,9.25,1.72c6.85-4.93,13.67-10.02,22.43-11.18c0.49-0.07,1.13-0.18,1.38-0.52c4-5.35,8.06-2.98,12.14-0.17
		c3.08-1.35,4.89-6.26,2.7-10.32c-1.88-3.49-2.05-7.28-3.48-10.77c-1.21-2.95-0.35-5.31,2.46-6.66c4.53-2.18,6.03-5.74,5.58-10.54
		c-0.22-2.29,0.15-4.58,0.68-6.88c0.43-1.85,0.47-3.75,2.69-4.21c2.18-0.44,3.32,1.07,4.19,2.78c0.38,0.75,0.88,1.4,1.44,2.01
		c3.55,3.74,4.12,7.82,1.23,12.19c-1.56,2.36-1.75,4.96-1.59,7.65c0.27,4.58,3.97,6.54,7.5,3.48c3.9-3.38,8.03-5.51,13.09-6.55
		c3.76-0.77,6.38-3.49,6.89-7.58c0.5-4.03,2.42-7.88,1.5-12.09c-5.76-1.16-11.38-4.21-17.37-2.49c-4.07,1.17-7.08,1.68-8.61-3.23
		c-0.54-1.73-2.66-1.83-3.88-2.93c-0.15-0.2-0.3-0.41-0.44-0.61c-2.24-3.61-3.55,0.28-5.07,0.84c-1.57,0.57-2.66,2.85-4.71,1.91
		c-2.4-1.09-0.4-2.88-0.24-4.3c0.39-3.5-1.68-5.04-4.54-5.27c-5.11-0.4-3.74-3.56-1.64-5c4.98-3.4,8.37-8.8,14.16-11.1
		c12.59-2.1,25.05-5.33,38-4.05c1.97,3.43,4.63,4.99,8.62,3.33c0.71-0.29,1.87-0.45,2.39-0.08c3.5,2.53,8.17,3.14,11,6.73
		c2.51,1.3,4.92,2.75,7.24,4.36c3.14,2.19,5.65,4.38,4.07,9c-1.02,2.98,1.32,5.23,3.95,6.04c4.22,1.31,5,3.82,3.71,7.59l0,0
		c-2.86,2.44-6.32,3.52-9.91,4.21C221.5,102.74,219.25,103.55,218,106.05z"/>
	<path class="st18" d="M92.06,121.04c1.22-0.61,2.47-1.45,2.69-2.76c0.89-5.3,4-9.31,7.31-13.23c3.55-1.4,5.68-4.29,7.91-7.19
		c3.61-4.71,8.82-7.73,13.07-11.78c4.63-1.01,5.7-6.54,10.24-7.91c2.21-0.67,3.89-2.3,3.38,1.64c-0.25,1.9,1.33,2.95,1.73,4.44
		c0.76,2.84,2.37,6.13-2.69,7.16c-2.96,0.61-3.66,2.91-1.52,5.18c2.7,2.86,3.42,5.87,1.82,9.45c-1.43,2.83-3.45,1.6-5.48,0.86
		c-3.65-1.31-5.47-0.36-6.68,3.36c-0.52,1.59-0.57,3.24-0.57,4.9c-0.02,5.36,0.42,5.81,5.75,5.88c4.32-3.03,7.38-7.52,12.26-10.04
		c2.7-1.39,2.15-4.51,0.97-7.13c-1.66-3.68-0.34-6.75,3.4-8.1c4.51-1.63,2.43,3.33,4.34,4.3c0.27,7.26,0.92,14.66-7.65,18.26
		c-1.16,0.49-2.9,1.57-1.96,2.92c2.07,2.98,1.61,7.08,3.47,9.52c2.7,3.55,1.72,7.28,2.54,10.86c0.55,2.4-0.7,3.79-3.14,4.08
		c-2.55-0.48-3.69-2.53-5.1-4.39c-2.74-3.62-4.55-3.44-6.1,0.69c-1,2.67-2.67,3.45-5.39,4.16c-7.95,2.09-14.99,6.15-21.06,11.77
		c-4.59,4.25-6.02,3.98-8.14-2.04c-0.88-2.5-2.14-4.15-4.85-4.07c-2.72,0.08-3.38,2.13-3.74,4.41c-0.21,1.34-1.06,2.4-2.05,3.33
		c-2.01,0.89-3.61,0.26-4.93-1.36c-1.23-2.41,0.42-4.1,1.46-5.95c2.12-2.85,1.43-5.99,0.85-9.08c-0.67-3.57-0.23-6.49,2.16-9.69
		C89.06,129.9,90.65,125.42,92.06,121.04L92.06,121.04z"/>
	<path class="st19" d="M129.03,121.03c-1.55,0.65-2.64,2.81-4.8,1.48c-1.95-1.2-2.33-3.06-2.19-5.15c0.17-2.61-0.27-5.22,0.67-7.83
		c1.78-4.96,4.22-6.13,8.77-3.43c1.76,1.05,3.04,0.78,4.54-0.08c1.99-0.88,4.27-2.05,5.58,0.59c1.3,2.62-1.5,3.2-2.94,4.29
		C134.9,113.77,130.83,116.31,129.03,121.03z"/>
	<path class="st20" d="M143.02,145.01c1.45-0.12,3.18-0.88,2.71-2.23c-1.22-3.52,0.53-7.52-2.25-10.83
		c-2.48-2.94-1.29-7.7-4.95-10.44c-1.32-0.98,0-2.61,1.57-3.4c1.91-0.96,3.84-1.97,5.5-3.28c1.9-1.5,3.68-2.97,2.64-6.21
		c-0.91-2.85,2.53-5.39,1.74-8.57c-0.16-3.54,0.86-6.09,5.03-6.01c0.23,0.05,0.45,0.09,0.68,0.14c1.51,0.8,2.54,2.01,3.1,3.64
		c0.17,0.7,0.18,1.4,0.01,2.1c-0.16,0.46-0.43,0.83-0.8,1.13c-0.4-0.28-0.88-0.5-1.19-0.87c-1.24-1.43-0.87-4.94-4.09-3.75
		c-2.61,0.97-1.53,3.68-1.68,5.72c-0.11,1.48-0.19,3,0.01,4.46c0.73,5.43-1.17,9.35-6.31,11.54c-2.66,1.13-2.58,2.58-1.91,5.44
		c1.46,6.21,5.54,11.86,4.22,18.72c-0.57,2.97-1.48,5.02-5.04,3.71C142.08,145.42,142.65,145.31,143.02,145.01z"/>
	<path class="st21" d="M155.01,94.05c-2.48-3.06-2.1-5.17,2.02-6.02c0,0-0.01,0-0.01,0c1.79,1.3,4.6,2.22,3.08,5.2
		C159,95.41,156.96,95.26,155.01,94.05L155.01,94.05z"/>
	<path class="st14" d="M82.07,158c1.53,0.97,3.22,1.13,4.97,0.99c0.6,0.67,0.6,1.34,0.03,2.03c0.17,0.94,0.04,2.48,0.56,2.74
		c5.56,2.86,5.19,8.43,6.35,13.31c-2.63-1.26-5.25-3.18-7.92-0.08c1.38-4.68-2.73-7.89-3.3-12.11c-0.26-1.94-0.71-3.85-0.71-5.83
		c-0.3-0.24-0.39-0.47-0.29-0.7C81.86,158.11,81.96,158,82.07,158z"/>
	<path class="st11" d="M82.07,158c-0.01,0.35-0.02,0.69-0.03,1.04c-1.49-0.75-2.85-1.33-2.99,1.26c-0.09,1.59,0.52,3.35-0.88,4.71
		c-0.24-10.32,0.93-20.42,4.86-30.06c2.35,5.91,2.74,11.93,1.04,18.08C83.4,154.69,82.73,156.34,82.07,158z"/>
	<path class="st14" d="M84.07,153.03c-0.37-6.02,0.87-12.14-1.04-18.08c0.01-0.31,0.02-0.62,0.05-0.93c2.52-0.17,3.73-1.98,4.41-4
		c1.08-3.25,2.81-6.11,4.59-8.98c0.1,5.21-3.03,9.43-5.2,13.63c-1.56,3.01-1.71,5.34-1.37,8.27
		C85.9,146.39,87.7,150.12,84.07,153.03z"/>
	<path class="st22" d="M247.55,166.9c-2.71,0.13-4.03-0.18-5.36-1.15c-5.48-4-11.2-4.29-16.97-0.55c-1.31,0.85-2.54,1.04-3.52-0.24
		c-0.98-1.28,0.54-1.92,0.92-2.89c1.66-4.2,4.63-6.86,8.59-8.84c3.09-1.55,5.86-2.16,8.61,0.45c0.47,0.44,1.37,1.21,1.48,1.12
		c3.45-2.92,7.84,0.98,11.52-1.87c3.43-2.65,7.33,0.43,11.06,0.38c0.8-0.01,0.76,0.99,0.51,1.61c-0.25,0.6-0.57,1.27-1.06,1.66
		c-4.48,3.62-10.89,4.5-14.1,10.02C248.93,167.14,247.36,166.93,247.55,166.9z"/>
	<path class="st23" d="M233.97,98.04c0.28-3.47-0.08-5.98-4.73-6.28c-3.21-0.21-5.25-5.62-3.83-8.77c1.25-2.77-0.09-4.31-2.15-5.81
		c-2.77-2.02-6.15-3.23-8.27-6.14c8.22,1.52,12.44,8.08,17.43,13.72C236.1,88.9,235.59,93.37,233.97,98.04z"/>
	<path class="st24" d="M288.98,156.42c-0.85-3.21-1.98-6-4.27-8.36c-1.39-1.43-0.65-3.49-0.76-5.28c-0.11-1.8,0.41-3.68,2.23-3.97
		c2.1-0.34,1.63,2.07,2.27,3.24C291,146.67,289.83,151.52,288.98,156.42z"/>
	<path class="st25" d="M235.97,124.82c0.03,1.94-0.14,3.8-2.58,4.1c-2.19,0.27-3.02-1.4-3.21-3.05c-0.25-2.24-1.61-4-2.08-6.09
		c-0.27-1.18-0.11-2.36,1-3.12c1.35-0.91,2.13,0.21,2.96,0.96C234.19,119.57,236.04,121.68,235.97,124.82z"/>
	<path class="st23" d="M218,106.05c0.06-1.9,1.15-3.42,2.8-3.7c4.64-0.76,8.59-3.48,13.17-4.31c-0.97,4.23-4.97,4.27-7.85,4.75
		C223.03,103.31,220.44,104.27,218,106.05z"/>
	<path class="st10" d="M155.01,94.05c1.55-0.11,3.51,0.51,4.37-1.23c1.16-2.36-2-2.96-2.35-4.79c2.95,0.24,5.57,0.77,6.09,4.49
		c0.33,2.37,2.04,3.02,4.05,1.89c7.01-3.93,13.52,1.01,20.3,1.13c1.46,0.03,2.75,1.75,1.89,3.85c-1.51,3.71-1.35,7.8-2.43,11.59
		c-1.37,4.78-5.03,7.48-9.76,7.87c-3.26,0.27-5.88,1.43-7.9,3.56c-3.05,3.22-6.26,5.05-10.45,2.7c-2.37-1.33-2.67-8.47-0.77-12.11
		c0.53-1.02,1.23-1.96,1.81-2.96c2.05-3.54,0.26-6.3-1.86-8.99c0.01-0.34,0.02-0.68,0.03-1.02c5.66,1.58,7.52,5.65,4.75,10.81
		c-1.27,2.35-2.62,4.6-2.93,7.32c-0.22,1.96,0.02,3.78,2.09,4.55c2.12,0.78,3.74-0.42,4.36-2.25c1.19-3.46,3.58-4.09,6.9-4.31
		c8.97-0.59,13.28-6.43,11.73-15.25c-0.12-0.67-0.18-1.56-0.77-1.74c-4.31-1.33-8.29-5.1-13.1-2.97c-4.28,1.9-8.58,2.09-13.04,1.86
		C157.02,96.71,156.02,95.38,155.01,94.05z"/>
	<path class="st26" d="M87.06,161.01c-0.01-0.68-0.02-1.35-0.03-2.03c0.35-1.44,0.68-2.89,1.06-4.32c0.59-2.23,1.92-4.29,4.22-4.2
		c2.38,0.1,4.74,1.03,5.71,3.95c2.38,7.16,2.56,6.87,8.2,2.12c4.42-3.73,8.22-8.58,15.06-9.05c2.26-0.15,4.64-2.56,7.59-2.8
		c1.55-0.13,2-2.05,2.13-3.58c0.14-1.68,0.1-3.52,2.24-3.9c2.33-0.41,4.31,0.54,5.56,2.48c1.25,1.93,1.9,4.28,4.24,5.33
		c-0.34,0.34-0.67,0.67-1.01,1.01c-0.76-0.28-1.66-0.4-2.25-0.88c-2.29-1.88-4.38-5.6-6.78,0.04c-0.37,0.86-2.27,1.32-3.54,1.5
		c-10.05,1.5-17.77,7.28-25.15,13.63c-3.24,2.79-4.84,2.65-6.65-1.18c-0.63-1.34-1.06-2.78-1.66-4.14c-0.6-1.35-1.68-2.01-3.18-1.91
		c-1.54,0.11-2.54,0.93-2.67,2.45C89.94,157.86,88.48,159.41,87.06,161.01z"/>
	<path class="st27" d="M211.99,95.34c0,2.52-1.12,4.26-3.64,4.59c-2.05,0.26-4.15-0.96-3.86-2.87c0.37-2.43,2.46-4.42,5.06-4.79
		C211.34,92.01,211.92,93.71,211.99,95.34z"/>
	<path class="st28" d="M189.79,125.92c-2.09-0.3-3.63-1.41-3.56-3.48c0.08-2.2,2.07-3.05,3.92-3c1.61,0.04,3.47,0.79,3.61,2.8
		C193.94,124.9,191.56,125.15,189.79,125.92z"/>
	<path class="st21" d="M158.02,98.05c1.52-0.87,2.78-2.41,4.93-1.25c0.77,0.42,2.28,0.52,2.89,0.04c6.04-4.77,11.85-1.47,17.8,0.15
		c2.47,0.67,3.24,1.82,2.8,4.24c-0.59,3.25-1.01,6.53-1.47,9.8c-0.51,3.61-3.65,4.62-6.25,5.76c-2.03,0.9-4.64,1.33-6.78,0.9
		c-2.71-0.54-3.49,0.14-4.05,2.66c-0.7,3.14-3.23,5.13-6.23,4.18c-2.76-0.87-4.6-3.36-3.05-6.78c0.75-1.65,0.22-3.53,1.37-5.22
		c4.55-6.74,4.37-7.41-1.95-12.51C158.03,99.37,158.03,98.71,158.02,98.05z"/>
</g>
<polygon class="st29" points="161.39,63.11 171.03,61.2 166,58 "/>
<polyline class="st29" points="195.58,61.24 203,63 201,58 "/>
<g>
	<g>
		<path class="st5" d="M167.15,62.27c1.34-0.19,2.68-0.38,4.03-0.57c0.74-0.1,1.16-0.99,1.07-1.65c-0.1-0.75-0.72-1.28-1.47-1.3
			c-1.73-0.06-3.46,0.21-5.16,0.53c-0.76,0.15-1.55,0.25-2.28,0.52c-0.4,0.15-0.75,0.32-1.08,0.57c-0.14,0.1-0.29,0.19-0.42,0.3
			c-0.15,0.08-0.14,0.09,0.03,0.01c-0.08,0.03-0.16,0.04-0.24,0.05c-0.78,0.12-1.28,1.14-1.05,1.85c0.27,0.85,1.01,1.17,1.85,1.05
			c0.73-0.11,1.18-0.62,1.8-0.96c-0.13,0.04-0.11,0.03,0.06-0.03c0.1-0.03,0.19-0.06,0.29-0.09c0.15-0.04,0.3-0.07,0.45-0.1
			c0.41-0.09,0.82-0.17,1.22-0.25c0.39-0.08,0.77-0.15,1.16-0.21c0.19-0.03,0.39-0.06,0.58-0.09c0.19-0.03,0.22-0.03,0.1-0.02
			c0.08-0.01,0.17-0.02,0.25-0.03c0.81-0.09,1.62-0.13,2.43-0.11c-0.13-0.98-0.27-1.96-0.4-2.95c-1.34,0.19-2.68,0.38-4.03,0.57
			c-0.78,0.11-1.27,1.14-1.05,1.85C165.58,62.08,166.32,62.39,167.15,62.27L167.15,62.27z"/>
	</g>
</g>
<g>
	<g>
		<path class="st5" d="M195.92,61.42c1.11-0.13,2.28-0.26,3.36,0.05c0.54,0.16,0.96,0.47,1.43,0.76c0.21,0.13,0.44,0.25,0.68,0.31
			c0.09,0.02,0.78,0.07,0.78,0.07c0.13-0.13,0.25-0.25,0.38-0.38c-0.57-0.02-1.1-0.28-1.62-0.5c-0.54-0.22-1.08-0.43-1.63-0.62
			c-1.1-0.39-2.21-0.74-3.33-1.04c-0.41-0.11-0.66,0.47-0.29,0.69c0.71,0.42,1.43,0.82,2.17,1.19c0.06-0.23,0.13-0.47,0.19-0.7
			c-0.36,0.03-0.69-0.12-1.03-0.23c-0.36-0.12-0.72-0.24-1.08-0.36c-0.07,0.24-0.13,0.48-0.2,0.72c2.01,0.64,4.03,1.21,6.08,1.72
			c0.03-0.25,0.07-0.49,0.1-0.74c-0.44-0.06-0.81-0.39-1.15-0.65c-0.39-0.3-0.79-0.53-1.25-0.7c-1.08-0.41-2.11-0.87-3.13-1.4
			c-0.43-0.22-0.79,0.39-0.38,0.65c0.98,0.6,2.1,0.84,3.21,1.12c1.24,0.32,2.41,0.8,3.58,1.3c0.44,0.19,0.82-0.46,0.38-0.65
			c-1.15-0.49-2.31-0.99-3.52-1.31c-1.11-0.3-2.27-0.5-3.27-1.11c-0.13,0.22-0.25,0.43-0.38,0.65c1.08,0.56,2.17,1.04,3.31,1.48
			c0.94,0.36,1.57,1.25,2.6,1.38c0.42,0.05,0.5-0.64,0.1-0.74c-2.04-0.51-4.07-1.08-6.08-1.72c-0.46-0.15-0.66,0.57-0.2,0.72
			c0.4,0.13,0.81,0.27,1.21,0.4c0.36,0.12,0.72,0.24,1.1,0.22c0.34-0.02,0.55-0.52,0.19-0.7c-0.74-0.37-1.46-0.77-2.17-1.19
			c-0.1,0.23-0.19,0.46-0.29,0.69c1.17,0.31,2.32,0.67,3.46,1.08c0.55,0.2,1.09,0.41,1.63,0.63c0.55,0.23,1.09,0.45,1.7,0.47
			c0.19,0.01,0.39-0.18,0.38-0.38c-0.01-0.27-0.14-0.5-0.38-0.64c-0.3-0.17-0.63-0.08-0.95-0.16c-0.6-0.14-1.1-0.67-1.67-0.91
			c-1.27-0.52-2.68-0.39-4.01-0.24C195.45,60.72,195.44,61.47,195.92,61.42L195.92,61.42z"/>
	</g>
</g>
<g>
	<g>
		<path class="st2" d="M199.61,61.7c0.39-0.02,0.8-0.08,1.19-0.06c-0.13-0.02-0.27-0.04-0.4-0.05c0.05,0,0.09,0.01,0.13,0.03
			c-0.12-0.05-0.24-0.1-0.36-0.15c0.04,0.02,0.08,0.04,0.12,0.07c-0.1-0.08-0.2-0.16-0.3-0.23c0.13,0.11,0.21,0.25,0.33,0.37
			c0.35,0.36,0.85,0.61,1.36,0.59c0.86-0.03,1.57-0.74,1.57-1.61c0-0.44-0.17-0.81-0.43-1.15c-0.21-0.27-0.41-0.54-0.62-0.8
			c-0.26-0.33-0.62-0.56-1.02-0.68c-0.6-0.18-1.29,0-1.74,0.43c-0.31,0.29-0.42,0.67-0.57,1.05c0.05-0.12,0.1-0.24,0.15-0.36
			c-0.01,0.03-0.03,0.06-0.05,0.09c0.08-0.1,0.16-0.2,0.23-0.3c-0.02,0.03-0.04,0.05-0.07,0.07c0.1-0.08,0.2-0.16,0.3-0.23
			c-0.04,0.03-0.08,0.05-0.13,0.07c0.12-0.05,0.24-0.1,0.36-0.15c-0.4,0.15-0.85,0.22-1.26,0.33c-0.61,0.15-1.13,0.8-1.1,1.45
			c0.01,0.27,0.08,0.52,0.2,0.76c0.18,0.35,0.54,0.56,0.9,0.69c1.33,0.47,2.77,0.68,4.18,0.63c0.39-0.02,0.78-0.16,1.06-0.44
			c0.26-0.26,0.46-0.69,0.44-1.06c-0.04-0.79-0.66-1.53-1.5-1.5c-0.58,0.02-1.17,0-1.74-0.08c0.13,0.02,0.27,0.04,0.4,0.05
			c-0.69-0.1-1.37-0.26-2.04-0.49c0,0.96,0,1.93,0,2.89c0.39-0.1,0.8-0.18,1.19-0.3c0.35-0.11,0.69-0.28,0.94-0.56
			c0.26-0.29,0.38-0.62,0.51-0.98c-0.05,0.12-0.1,0.24-0.15,0.36c0.02-0.05,0.04-0.08,0.07-0.12c-0.08,0.1-0.16,0.2-0.23,0.3
			c0.01-0.01,0.02-0.02,0.03-0.03c-0.1,0.08-0.2,0.16-0.3,0.23c0.01-0.01,0.03-0.02,0.04-0.03c-0.12,0.05-0.24,0.1-0.36,0.15
			c0.03-0.02,0.06-0.02,0.09-0.03c-0.13,0.02-0.27,0.04-0.4,0.05c0.03,0,0.07,0,0.1,0c-0.13-0.02-0.27-0.04-0.4-0.05
			c0.03,0.01,0.07,0.01,0.1,0.03c-0.12-0.05-0.24-0.1-0.36-0.15c0.03,0.01,0.06,0.03,0.09,0.05c-0.1-0.08-0.2-0.16-0.3-0.23
			c0.09,0.07,0.16,0.16,0.23,0.25c-0.08-0.1-0.16-0.2-0.23-0.3c0.18,0.24,0.42,0.48,0.56,0.75c-0.05-0.12-0.1-0.24-0.15-0.36
			c0.01,0.03,0.02,0.05,0.03,0.08c-0.02-0.13-0.04-0.27-0.05-0.4c0.01,0.03,0.01,0.05,0,0.08c0.02-0.13,0.04-0.27,0.05-0.4
			c0,0.01-0.01,0.02-0.01,0.03c0.13-0.22,0.26-0.44,0.39-0.66c-0.01,0.01-0.01,0.02-0.02,0.02c0.1-0.08,0.2-0.16,0.3-0.23
			c-0.01,0.01-0.02,0.01-0.03,0.02c0.25-0.07,0.5-0.14,0.76-0.2c-0.02,0-0.03,0-0.05,0c0.13,0.02,0.27,0.04,0.4,0.05
			c-0.02,0-0.03-0.01-0.05-0.01c0.12,0.05,0.24,0.1,0.36,0.15c-0.04-0.02-0.08-0.04-0.12-0.07c0.1,0.08,0.2,0.16,0.3,0.23
			c-0.12-0.1-0.2-0.22-0.3-0.33c-0.25-0.28-0.6-0.49-0.96-0.58c-0.53-0.14-1.12-0.03-1.66,0c-0.4,0.02-0.77,0.15-1.06,0.44
			c-0.26,0.26-0.46,0.69-0.44,1.06c0.02,0.39,0.14,0.79,0.44,1.06C198.83,61.52,199.21,61.73,199.61,61.7L199.61,61.7z"/>
	</g>
</g>
<g>
	<g>
		<path class="st2" d="M160.29,62.13c0.36,0,0.67-0.17,0.98-0.35c0.14-0.08,0.29-0.15,0.44-0.22c0.02-0.01,0.04-0.02,0.06-0.02
			c-0.04,0.02-0.04,0.02,0,0c0.04-0.02,0.08-0.03,0.12-0.05c0.08-0.03,0.16-0.07,0.24-0.1c0.09-0.04,0.17-0.08,0.22-0.17
			c0.05-0.08,0.07-0.2,0.04-0.29c-0.06-0.17-0.27-0.34-0.46-0.26c-0.32,0.13-0.65,0.26-0.96,0.42c-0.13,0.07-0.25,0.15-0.38,0.21
			c-0.02,0.01-0.03,0.02-0.05,0.02c0.05-0.02,0.05-0.02,0.01,0c-0.04,0.01-0.07,0.03-0.11,0.04c-0.03,0.01-0.08,0.03-0.11,0.02
			c0.05-0.01,0.06-0.01,0.02,0c-0.02,0-0.04,0-0.06,0c-0.2,0-0.38,0.17-0.38,0.38C159.92,61.95,160.08,62.13,160.29,62.13
			L160.29,62.13z"/>
	</g>
</g>
<g>
	<g>
		<path class="st2" d="M161.35,61.48c0.13,0,0.25-0.03,0.37-0.09c0.06-0.03,0.11-0.07,0.18-0.1c-0.03,0.01-0.06,0.03-0.09,0.04
			c0.05-0.02,0.11-0.03,0.16-0.04c0.08-0.02,0.16-0.05,0.24-0.09c0.08-0.05,0.15-0.13,0.17-0.22c0.02-0.09,0.01-0.21-0.04-0.29
			c-0.05-0.08-0.13-0.15-0.22-0.17c-0.1-0.02-0.2-0.01-0.29,0.04c-0.01,0.01-0.02,0.01-0.04,0.02c0.03-0.01,0.06-0.03,0.09-0.04
			c-0.08,0.03-0.16,0.04-0.24,0.06c-0.07,0.02-0.13,0.05-0.19,0.09c-0.04,0.02-0.08,0.05-0.12,0.07c0.03-0.01,0.06-0.03,0.09-0.04
			c-0.04,0.01-0.07,0.02-0.11,0.03c0.03,0,0.07-0.01,0.1-0.01c-0.02,0-0.04,0-0.06,0c-0.1,0-0.2,0.04-0.27,0.11
			c-0.07,0.07-0.11,0.17-0.11,0.27c0,0.1,0.04,0.2,0.11,0.27C161.16,61.44,161.25,61.48,161.35,61.48L161.35,61.48z"/>
	</g>
</g>
<g>
	<g>
		<path class="st2" d="M162.22,60.41c-0.09,0.05-0.18,0.09-0.27,0.14c0.13,0.22,0.25,0.43,0.38,0.65c0.12-0.08,0.24-0.16,0.36-0.24
			c0.24-0.16,0.24-0.48,0-0.65c-0.21-0.14-0.43-0.03-0.62,0.06c-0.05,0.02-0.11,0.05-0.16,0.07c-0.02,0.01-0.12,0.06-0.03,0.01
			c-0.03,0.02-0.06,0.03-0.09,0.04c-0.24,0.1-0.49,0.18-0.74,0.26c-0.19,0.05-0.32,0.27-0.26,0.46c0.06,0.19,0.26,0.32,0.46,0.26
			c0.23-0.07,0.45-0.14,0.67-0.23c0.13-0.05,0.26-0.11,0.39-0.16c0.05-0.02,0.11-0.05,0.16-0.07c0.02-0.01,0.05-0.02,0.07-0.03
			c0.04-0.02,0.03-0.02-0.03,0.01c0.09-0.02,0.02-0.03-0.2-0.03c0-0.22,0-0.43,0-0.65c-0.12,0.08-0.24,0.16-0.36,0.24
			c-0.16,0.11-0.25,0.34-0.13,0.51c0.11,0.18,0.33,0.23,0.51,0.13c0.09-0.05,0.18-0.09,0.27-0.14c0.17-0.09,0.24-0.35,0.13-0.51
			C162.62,60.36,162.41,60.31,162.22,60.41L162.22,60.41z"/>
	</g>
</g>
<g>
	<g>
		<path class="st2" d="M161.86,61.31c0.25-0.11,0.49-0.22,0.74-0.33c0.08-0.04,0.15-0.14,0.17-0.22c0.02-0.09,0.01-0.21-0.04-0.29
			c-0.05-0.08-0.13-0.15-0.22-0.17c-0.03,0-0.07-0.01-0.1-0.01c-0.07,0-0.13,0.02-0.19,0.05c-0.25,0.11-0.49,0.22-0.74,0.33
			c-0.08,0.04-0.15,0.14-0.17,0.22c-0.02,0.09-0.01,0.21,0.04,0.29c0.05,0.08,0.13,0.15,0.22,0.17c0.03,0,0.07,0.01,0.1,0.01
			C161.74,61.37,161.8,61.35,161.86,61.31L161.86,61.31z"/>
	</g>
</g>
<g>
	<g>
		<path class="st2" d="M162.12,61.28c0.03,0,0.05-0.01,0.08-0.02c0.03-0.01,0.05-0.02,0.08-0.03c0.03-0.01,0.05-0.02,0.08-0.04
			c0.02-0.01,0.04-0.03,0.07-0.04c0.05-0.03,0.09-0.07,0.13-0.11c0.04-0.03,0.06-0.07,0.08-0.12c0.02-0.04,0.03-0.09,0.03-0.14
			c0-0.05-0.01-0.1-0.03-0.14c-0.02-0.05-0.04-0.09-0.08-0.12c-0.03-0.02-0.05-0.04-0.08-0.06c-0.06-0.03-0.12-0.05-0.19-0.05
			c-0.03,0-0.07,0.01-0.1,0.01c-0.06,0.02-0.12,0.05-0.17,0.1c-0.02,0.02-0.04,0.04-0.06,0.05c0.03-0.02,0.05-0.04,0.08-0.06
			c-0.03,0.02-0.07,0.04-0.1,0.06c0.03-0.01,0.06-0.03,0.09-0.04c-0.04,0.02-0.07,0.03-0.11,0.03c-0.05,0.01-0.09,0.03-0.13,0.07
			c-0.04,0.03-0.07,0.06-0.1,0.11c-0.03,0.04-0.04,0.09-0.04,0.14c-0.01,0.05-0.01,0.1,0.01,0.15c0.01,0.03,0.03,0.06,0.04,0.09
			c0.03,0.06,0.08,0.1,0.13,0.13c0.03,0.01,0.06,0.03,0.09,0.04C161.98,61.29,162.05,61.29,162.12,61.28L162.12,61.28z"/>
	</g>
</g>
<g>
	<g>
		<path class="st2" d="M162.37,61.3c0.22-0.17,0.43-0.36,0.63-0.55c0.07-0.06,0.11-0.17,0.11-0.27c0-0.09-0.04-0.2-0.11-0.27
			c-0.07-0.07-0.17-0.11-0.27-0.11c-0.1,0-0.19,0.04-0.27,0.11c-0.2,0.19-0.42,0.37-0.63,0.55c-0.04,0.03-0.06,0.07-0.08,0.12
			c-0.02,0.04-0.03,0.09-0.03,0.14c0,0.09,0.04,0.2,0.11,0.27c0.07,0.07,0.17,0.11,0.27,0.11c0.03,0,0.07-0.01,0.1-0.01
			C162.27,61.38,162.33,61.34,162.37,61.3L162.37,61.3z"/>
	</g>
</g>
<g>
	<g>
		<path class="st2" d="M162.96,60.79c1.64-0.75,3.36-1.33,5.12-1.74c0.47-0.11,0.27-0.83-0.2-0.72c-1.82,0.43-3.6,1.04-5.3,1.82
			C162.14,60.34,162.52,60.99,162.96,60.79L162.96,60.79z"/>
	</g>
</g>
<g>
	<g>
		<path class="st5" d="M168.94,59.26c-0.2-0.27-0.49-0.43-0.84-0.38c-0.33,0.05-0.63,0.28-0.93,0.41c-0.61,0.26-1.24,0.47-1.86,0.7
			c-0.19,0.07-0.32,0.25-0.26,0.46c0.05,0.18,0.27,0.33,0.46,0.26c0.54-0.2,1.08-0.4,1.62-0.6c0.27-0.1,0.53-0.21,0.78-0.35
			c0.09-0.05,0.19-0.12,0.28-0.14c0.05-0.01,0.02-0.01,0.07,0.01c-0.03-0.01,0.05,0.04,0.02,0.01c0.12,0.16,0.32,0.25,0.51,0.13
			C168.97,59.68,169.07,59.42,168.94,59.26L168.94,59.26z"/>
	</g>
</g>
<g>
	<g>
		<path class="st5" d="M196.96,59.44c0.09,0.16,0.19,0.32,0.32,0.46c0.13,0.14,0.3,0.24,0.46,0.36c-0.03-0.02-0.05-0.04-0.08-0.06
			c0.18,0.14,0.35,0.31,0.49,0.49c-0.02-0.03-0.04-0.05-0.06-0.08c0.01,0.01,0.02,0.02,0.03,0.03c0.06,0.08,0.12,0.14,0.22,0.17
			c0.09,0.02,0.21,0.01,0.29-0.04c0.08-0.05,0.15-0.13,0.17-0.22c0.02-0.09,0.02-0.21-0.04-0.29c-0.12-0.16-0.25-0.32-0.41-0.46
			c-0.15-0.14-0.33-0.25-0.49-0.38c0.03,0.02,0.05,0.04,0.08,0.06c-0.07-0.06-0.14-0.12-0.19-0.19c0.02,0.03,0.04,0.05,0.06,0.08
			c-0.08-0.1-0.14-0.2-0.2-0.31c-0.1-0.17-0.34-0.24-0.51-0.13C196.92,59.04,196.85,59.26,196.96,59.44L196.96,59.44z"/>
	</g>
</g>
<g>
	<g>
		<path class="st5" d="M197.28,59.51c1.02,0.63,2.08,1.23,3.18,1.73c1.1,0.5,2.23,0.9,3.36,1.3c0.46,0.16,0.65-0.56,0.2-0.72
			c-1.11-0.39-2.22-0.78-3.29-1.27c-1.05-0.49-2.08-1.06-3.07-1.68C197.25,58.6,196.87,59.25,197.28,59.51L197.28,59.51z"/>
	</g>
</g>
<g>
	<g>
		<path class="st5" d="M204.05,62.55c0.01,0,0.02,0,0.04-0.01c-0.03,0-0.07,0.01-0.1,0.01c0.04,0,0.09,0,0.13,0
			c-0.03,0-0.07-0.01-0.1-0.01c0.11,0.02,0.21,0.05,0.3,0.09c-0.03-0.01-0.06-0.03-0.09-0.04c0.22,0.09,0.43,0.21,0.66,0.27
			c0.1,0.02,0.2,0.01,0.29-0.04c0.08-0.05,0.15-0.13,0.17-0.22c0.04-0.19-0.06-0.41-0.26-0.46c-0.09-0.02-0.17-0.05-0.25-0.08
			c0.03,0.01,0.06,0.03,0.09,0.04c-0.16-0.07-0.31-0.15-0.48-0.21c-0.2-0.07-0.4-0.1-0.61-0.06c-0.09,0.02-0.18,0.1-0.22,0.17
			c-0.05,0.08-0.07,0.2-0.04,0.29C203.66,62.5,203.85,62.59,204.05,62.55L204.05,62.55z"/>
	</g>
</g>
<g>
	<g>
		<path class="st5" d="M204.09,62.18c-0.59-0.03-1.18-0.08-1.77-0.15c-0.45-0.06-0.46,0.59-0.1,0.74c0.24,0.1,0.49,0.2,0.73,0.29
			c0.03-0.25,0.07-0.49,0.1-0.74c-0.64,0.09-1.14,0.03-1.75-0.15c-0.58-0.17-1.15-0.34-1.72-0.53c-0.55-0.19-1.1-0.39-1.63-0.64
			c-0.53-0.25-0.88-0.6-1.24-1.06c-0.09,0.21-0.18,0.43-0.27,0.64c0.51,0.02,0.98,0.41,1.41,0.64c0.49,0.26,0.99,0.49,1.5,0.7
			c1.03,0.41,2.1,0.71,3.2,0.88c0.47,0.08,0.67-0.58,0.2-0.72c-0.94-0.28-1.77-0.83-2.71-1.13c-0.91-0.3-1.75-0.83-2.7-1.02
			c0,0.24,0,0.48,0,0.72c0.22-0.03,0.47,0.1,0.67,0.17c0.23,0.08,0.46,0.16,0.68,0.24c0.43,0.15,0.87,0.31,1.3,0.46
			c0.46,0.16,0.65-0.56,0.2-0.72c-0.52-0.19-1.05-0.37-1.57-0.56c-0.49-0.17-0.95-0.39-1.48-0.31c-0.37,0.06-0.35,0.65,0,0.72
			c0.94,0.19,1.78,0.72,2.7,1.02c0.94,0.3,1.76,0.85,2.71,1.13c0.07-0.24,0.13-0.48,0.2-0.72c-1.15-0.19-2.27-0.5-3.34-0.94
			c-0.53-0.22-1.04-0.47-1.54-0.76c-0.46-0.26-0.89-0.52-1.43-0.55c-0.36-0.02-0.45,0.41-0.27,0.64c0.38,0.49,0.77,0.88,1.33,1.15
			c0.56,0.27,1.15,0.49,1.73,0.69c0.61,0.21,1.23,0.4,1.85,0.58c0.68,0.2,1.25,0.27,1.95,0.18c0.42-0.06,0.51-0.57,0.1-0.74
			c-0.24-0.1-0.49-0.2-0.73-0.29c-0.03,0.25-0.07,0.49-0.1,0.74c0.59,0.07,1.18,0.12,1.77,0.15
			C204.57,62.95,204.57,62.2,204.09,62.18L204.09,62.18z"/>
	</g>
</g>
</svg>
